<?xml version="1.0" encoding="utf-8"?>
<!-- Generator: Adobe Illustrator 26.0.1, SVG Export Plug-In . SVG Version: 6.00 Build 0)  -->
<svg version="1.1" id="Layer_1" xmlns="http://www.w3.org/2000/svg" xmlns:xlink="http://www.w3.org/1999/xlink" x="0px" y="0px"
	 viewBox="0 0 1290.2 1292.9" style="enable-background:new 0 0 1290.2 1292.9;" xml:space="preserve">
<style type="text/css">
	.st0{fill:#F04E23;}
	.st1{fill:#071930;}
</style>
<g>
	<polygon class="st0" points="645.1,789.4 453.5,637.8 335.5,544.4 335.5,1053.3 453.5,962.7 453.5,794.3 625.4,942.5 645.1,959.5 
		664.8,942.5 836.7,794.3 836.7,962.7 954.7,1053.3 954.7,544.4 836.7,637.8 	"/>
	<polygon class="st1" points="1036.7,177.9 954.7,241.7 836.7,333.4 645.1,482.3 453.5,333.4 335.5,241.7 253.5,177.9 100.9,59.4 
		100.9,1233.5 253.5,1116.3 253.5,368.8 335.5,434.2 453.5,528.2 518.9,580.3 645.1,680.9 771.3,580.3 836.7,528.2 954.7,434.2 
		1036.7,368.8 1036.7,1116.3 1189.3,1233.5 1189.3,59.4 	"/>
</g>
</svg>
