<?xml version="1.0" encoding="utf-8"?>
<!-- Generator: Adobe Illustrator 26.0.1, SVG Export Plug-In . SVG Version: 6.00 Build 0)  -->
<svg version="1.1" id="Layer_1" xmlns="http://www.w3.org/2000/svg" xmlns:xlink="http://www.w3.org/1999/xlink" x="0px" y="0px"
	 viewBox="0 0 3936.3 1185.4" style="enable-background:new 0 0 3936.3 1185.4;" xml:space="preserve">
<style type="text/css">
	.st0{fill:#F74901;}
	.st1{fill:#04172F;}
</style>
<g>
	<g>
		<polygon class="st0" points="545.7,706.7 389.3,583 293,506.8 293,922.1 389.3,848.1 389.3,710.7 529.6,831.7 545.7,845.6 
			561.8,831.7 702,710.7 702,848.1 798.3,922.1 798.3,506.8 702,583 		"/>
		<polygon class="st1" points="865.3,207.8 798.3,259.8 702,334.6 545.7,456.1 389.3,334.6 293,259.8 226.1,207.8 101.6,111 
			101.6,1069.1 226.1,973.5 226.1,363.5 293,416.9 389.3,493.6 442.7,536.1 545.7,618.2 648.6,536.1 702,493.6 798.3,416.9 
			865.3,363.5 865.3,973.5 989.7,1069.1 989.7,111 		"/>
	</g>
	<g>
		<polygon class="st1" points="1417.5,507.9 1336.1,328.4 1267.1,328.4 1267.1,634.7 1326.5,634.7 1326.5,430.5 1394.7,585.7 
			1440.2,585.7 1508.4,430.5 1508.4,634.7 1567.9,634.7 1567.9,328.4 1498.8,328.4 		"/>
		<path class="st1" d="M1814.6,328.4l-101.4,306.2h65.1l21-68.9h101.9l20.5,68.9h67.8l-101.4-306.2H1814.6z M1816.8,507.9
			l34.1-112.3l33.2,112.3H1816.8z"/>
		<path class="st1" d="M2345,497.7c7.9-10.2,11.8-22.5,11.8-37v-71.9c0-17.9-5.7-32.3-17.1-43.4c-11.4-11.1-26.2-16.6-44.6-16.6
			h-160.4v305.8h63V521.5h50.7l50.7,113.1h66.9l-52.5-116.1C2326.7,514.6,2337.2,507.6,2345,497.7z M2294.3,450.1
			c0,9.6-5,14.5-14.9,14.5h-81.8v-77.8h81.8c9.9,0,14.9,4.8,14.9,14.5V450.1z"/>
		<path class="st1" d="M3115.9,564c0,9.6-5,14.5-14.9,14.5h-69.1c-9.9,0-14.9-4.8-14.9-14.5V328.4h-63V576
			c0,17.9,5.7,32.3,17.1,43.4c11.1,10.8,25.9,16.2,44.6,16.2h100.6c18.7,0,33.5-5.4,44.6-16.2c11.4-11.1,17.1-25.5,17.1-43.4
			l0.9-247.5h-63V564z"/>
		<rect x="3371.6" y="328.4" class="st1" width="63" height="306.2"/>
		<path class="st1" d="M3816.8,481.5c-12-10.5-27.1-17.6-45.5-21.3l-81.3-17c-5.5-1.4-9.3-3.1-11.4-5.1c-2.3-2.3-3.5-5.7-3.5-10.2
			V399c0-9.6,5-14.5,14.9-14.5h63c9.6,0,14.6,4.8,14.9,14.5l0.9,23.8h61.2v-35.7c0-17.9-5.7-32.3-17.1-43.4
			c-11.4-11.1-26.2-16.6-44.6-16.6h-92.7c-18.4,0-33.2,5.5-44.6,16.6c-11.4,11.1-17.1,25.5-17.1,43.4V439c0,16.2,5.8,29.3,17.5,39.6
			c11.9,10.5,27,17.6,45,21.3l81.3,17c5.5,1.4,9.3,3.1,11.4,5.1c2.3,2.3,3.5,5.7,3.5,10.2v32.3c0,9.6-5,14.5-14.9,14.5h-68.2
			c-9.9,0-14.9-4.8-14.9-14.5v-27.2h-61.2v39.1c0,17.9,5.7,32.3,17,43.4c11.1,10.8,25.9,16.2,44.6,16.2h97.9
			c18.6,0,33.5-5.4,44.6-16.2c11.4-11.1,17.1-25.5,17.1-43.4v-55.3C3834.7,504.9,3828.7,491.7,3816.8,481.5z"/>
		<path class="st1" d="M2709.2,326.7h-107.5c-18.4,0-33.2,5.5-44.6,16.6s-17.1,25.5-17.1,43.4v188.8c0,17.9,5.7,32.3,17.1,43.4
			c11.1,10.8,25.9,16.2,44.6,16.2h68.6l14.4,39.1h49.4l-14.9-39.6c16-2.3,28.6-8.6,37.6-19.1c9.3-10.8,14-24.1,14-40V386.7
			c0-17.9-5.7-32.3-17.1-43.4C2742.5,332.2,2727.6,326.7,2709.2,326.7z M2708.4,564c0,7.7-3.4,12.3-10.1,14l-13.2-35h-49.5
			l13.2,35.4h-31c-9.9,0-14.9-4.8-14.9-14.5V399c0-9.6,5-14.5,14.9-14.5h75.6c9.9,0,14.9,4.8,14.9,14.5V564z"/>
		<g>
			<g>
				<path class="st0" d="M1737.6,915.1h-49.3c-8.7,0-15.7-2.5-20.9-7.6c-5.3-5.2-8-11.9-8-20.3V799c0-8.4,2.7-15.1,8-20.3
					c5.3-5.2,12.3-7.8,20.9-7.8h49.3c8.6,0,15.5,2.6,20.9,7.8c5.3,5.2,8,11.9,8,20.3v88.3c0,8.4-2.7,15.1-8,20.3
					C1753.3,912.6,1746.4,915.1,1737.6,915.1z M1688.8,804.4v77.2c0,4.5,2.3,6.8,7,6.8h34.5c4.6,0,7-2.3,7-6.8v-77.2
					c0-4.5-2.3-6.8-7-6.8h-34.5C1691.1,797.6,1688.8,799.9,1688.8,804.4z"/>
				<path class="st0" d="M2010.8,771.3L1966,914.5h-34.3l-44.8-143.2h33.5l28.4,108.8l29.2-108.8H2010.8z"/>
				<path class="st0" d="M2136.7,771.3h96.3v27h-66.8v29.4h54.2v27h-54.2v32.6h66.8v27h-96.3V771.3z"/>
				<path class="st0" d="M2473.6,914.5h-31.3l-23.7-52.9h-23.7v52.9h-29.4v-143h75c8.6,0,15.5,2.6,20.9,7.8s8,11.9,8,20.3v33.6
					c0,6.8-1.8,12.5-5.5,17.3c-3.7,4.6-8.6,7.9-14.7,9.7L2473.6,914.5z M2440.1,828.2v-22.9c0-4.5-2.3-6.8-7-6.8h-38.2V835h38.2
					C2437.7,835,2440.1,832.7,2440.1,828.2z"/>
				<path class="st0" d="M2604,914.5V771.3h29.4v56.5h50.7v-56.5h29.4v143.2h-29.4v-59.7h-50.7v59.7H2604z"/>
				<path class="st0" d="M2852,771.3h96.3v27h-66.8v29.4h54.2v27h-54.2v32.6h66.8v27H2852V771.3z"/>
				<path class="st0" d="M3155.3,882.3h-47.6l-9.8,32.2h-30.5l47.4-143.2h34.3l47.4,143.2h-31.7L3155.3,882.3z M3147.4,855.3
					l-15.5-52.5l-15.9,52.5H3147.4z"/>
				<path class="st0" d="M3322.2,771.3l76.7,0.4c8.6,0,15.5,2.6,20.9,7.8s8,11.9,8,20.3v86.7c0,8.4-2.7,15.1-8,20.3
					c-5.3,5.2-12.3,7.8-20.9,7.8h-76.7V771.3z M3351.6,887.9h39.9c4.6,0,7-2.3,7-6.8v-75.6c0-4.5-2.3-6.8-7-6.8h-39.9V887.9z"/>
			</g>
			<g>
				<rect x="1267.1" y="829.9" class="st0" width="263.7" height="26.2"/>
				<rect x="3568.6" y="829.9" class="st0" width="263.7" height="26.2"/>
			</g>
		</g>
	</g>
	<g>
		<g>
			<g>
				<path class="st1" d="M1305,1074.4h-20.5c-3.6,0-6.5-1.1-8.7-3.2c-2.2-2.2-3.3-5-3.3-8.5v-36.8c0-3.5,1.1-6.3,3.3-8.5
					c2.2-2.2,5.1-3.2,8.7-3.2h20.5c3.6,0,6.5,1.1,8.7,3.2c2.2,2.2,3.3,5,3.3,8.5v36.8c0,3.5-1.1,6.3-3.3,8.5
					C1311.5,1073.3,1308.6,1074.4,1305,1074.4z M1284.6,1028.2v32.2c0,1.9,1,2.8,2.9,2.8h14.4c1.9,0,2.9-0.9,2.9-2.8v-32.2
					c0-1.9-1-2.8-2.9-2.8h-14.4C1285.6,1025.3,1284.6,1026.3,1284.6,1028.2z"/>
				<path class="st1" d="M1384.2,1014.4l-18.7,59.7h-14.3l-18.7-59.7h14l11.8,45.4l12.2-45.4H1384.2z"/>
				<path class="st1" d="M1402.1,1014.4h40.1v11.3h-27.9v12.3h22.6v11.3h-22.6v13.6h27.9v11.3h-40.1V1014.4z"/>
				<path class="st1" d="M1508,1074.1h-13l-9.9-22.1h-9.9v22.1h-12.3v-59.6h31.3c3.6,0,6.5,1.1,8.7,3.2c2.2,2.2,3.3,5,3.3,8.5v14
					c0,2.8-0.8,5.2-2.3,7.2c-1.5,1.9-3.6,3.3-6.1,4.1L1508,1074.1z M1494,1038.1v-9.5c0-1.9-1-2.8-2.9-2.8h-15.9v15.2h15.9
					C1493,1040.9,1494,1040,1494,1038.1z"/>
				<path class="st1" d="M1527.7,1074.1v-59.7h12.3v23.6h21.1v-23.6h12.3v59.7h-12.3v-24.9H1540v24.9H1527.7z"/>
				<path class="st1" d="M1596.5,1014.4h40.1v11.3h-27.9v12.3h22.6v11.3h-22.6v13.6h27.9v11.3h-40.1V1014.4z"/>
				<path class="st1" d="M1688.4,1060.7h-19.9l-4.1,13.4h-12.7l19.8-59.7h14.3l19.8,59.7h-13.2L1688.4,1060.7z M1685,1049.4
					l-6.5-21.9l-6.6,21.9H1685z"/>
				<path class="st1" d="M1723.3,1014.4l32,0.2c3.6,0,6.5,1.1,8.7,3.2c2.2,2.2,3.3,5,3.3,8.5v36.2c0,3.5-1.1,6.3-3.3,8.5
					c-2.2,2.2-5.1,3.2-8.7,3.2h-32V1014.4z M1735.6,1063h16.6c1.9,0,2.9-0.9,2.9-2.8v-31.5c0-1.9-1-2.8-2.9-2.8h-16.6V1063z"/>
				<path class="st1" d="M1821.1,1014.4l32,0.2c3.6,0,6.5,1.1,8.7,3.2c2.2,2.2,3.3,5,3.3,8.5v36.2c0,3.5-1.1,6.3-3.3,8.5
					c-2.2,2.2-5.1,3.2-8.7,3.2h-32V1014.4z M1833.4,1063h16.6c1.9,0,2.9-0.9,2.9-2.8v-31.5c0-1.9-1-2.8-2.9-2.8h-16.6V1063z"/>
				<path class="st1" d="M1918,1074.4h-20.5c-3.6,0-6.5-1.1-8.7-3.2c-2.2-2.2-3.3-5-3.3-8.5v-36.8c0-3.5,1.1-6.3,3.3-8.5
					c2.2-2.2,5.1-3.2,8.7-3.2h20.5c3.6,0,6.5,1.1,8.7,3.2c2.2,2.2,3.3,5,3.3,8.5v36.8c0,3.5-1.1,6.3-3.3,8.5
					C1924.6,1073.3,1921.7,1074.4,1918,1074.4z M1897.7,1028.2v32.2c0,1.9,1,2.8,2.9,2.8h14.4c1.9,0,2.9-0.9,2.9-2.8v-32.2
					c0-1.9-1-2.8-2.9-2.8h-14.4C1898.6,1025.3,1897.7,1026.3,1897.7,1028.2z"/>
				<path class="st1" d="M1982.9,1074.4h-20.5c-3.6,0-6.5-1.1-8.7-3.2c-2.2-2.2-3.3-5-3.3-8.5v-36.8c0-3.5,1.1-6.3,3.3-8.5
					c2.2-2.2,5.1-3.2,8.7-3.2h20.5c3.6,0,6.5,1.1,8.7,3.2c2.2,2.2,3.3,5,3.3,8.5v36.8c0,3.5-1.1,6.3-3.3,8.5
					C1989.5,1073.3,1986.6,1074.4,1982.9,1074.4z M1962.6,1028.2v32.2c0,1.9,1,2.8,2.9,2.8h14.4c1.9,0,2.9-0.9,2.9-2.8v-32.2
					c0-1.9-1-2.8-2.9-2.8h-14.4C1963.5,1025.3,1962.6,1026.3,1962.6,1028.2z"/>
				<path class="st1" d="M2061.9,1074.1h-13l-9.9-22.1h-9.9v22.1h-12.3v-59.6h31.3c3.6,0,6.5,1.1,8.7,3.2s3.3,5,3.3,8.5v14
					c0,2.8-0.8,5.2-2.3,7.2c-1.5,1.9-3.6,3.3-6.1,4.1L2061.9,1074.1z M2048,1038.1v-9.5c0-1.9-1-2.8-2.9-2.8h-15.9v15.2h15.9
					C2047,1040.9,2048,1040,2048,1038.1z"/>
				<path class="st1" d="M2110.3,1032.8l-0.2-4.6c-0.1-1.9-1-2.8-2.9-2.8H2095c-1.9,0-2.9,0.9-2.9,2.8v5.6c0,0.9,0.2,1.6,0.7,2
					c0.4,0.4,1.1,0.7,2.2,1l15.9,3.3c3.6,0.7,6.5,2.1,8.9,4.1c2.3,2,3.5,4.6,3.5,7.7v10.8c0,3.5-1.1,6.3-3.3,8.5
					c-2.2,2.1-5.1,3.2-8.7,3.2h-19.1c-3.6,0-6.5-1.1-8.7-3.2c-2.2-2.2-3.3-5-3.3-8.5v-7.6h11.9v5.3c0,1.9,1,2.8,2.9,2.8h13.3
					c1.9,0,2.9-0.9,2.9-2.8v-6.3c0-0.9-0.2-1.5-0.7-2c-0.4-0.4-1.1-0.7-2.2-1l-15.9-3.3c-3.5-0.7-6.4-2.1-8.8-4.1
					c-2.3-2-3.4-4.6-3.4-7.7v-10.1c0-3.5,1.1-6.3,3.3-8.5c2.2-2.2,5.1-3.2,8.7-3.2h18.1c3.6,0,6.5,1.1,8.7,3.2
					c2.2,2.2,3.3,5,3.3,8.5v7H2110.3z"/>
			</g>
		</g>
		<g>
			<g>
				<path class="st1" d="M2443,1074.1h-13l-9.9-22.1h-9.9v22.1h-12.3v-59.6h31.3c3.6,0,6.5,1.1,8.7,3.2s3.3,5,3.3,8.5v14
					c0,2.8-0.8,5.2-2.3,7.2c-1.5,1.9-3.6,3.3-6.1,4.1L2443,1074.1z M2429,1038.1v-9.5c0-1.9-1-2.8-2.9-2.8h-15.9v15.2h15.9
					C2428.1,1040.9,2429,1040,2429,1038.1z"/>
				<path class="st1" d="M2462.8,1014.4h40.1v11.3h-27.9v12.3h22.6v11.3h-22.6v13.6h27.9v11.3h-40.1V1014.4z"/>
				<path class="st1" d="M2523.4,1014.4l31.4,0.2c3.6,0,6.5,1.1,8.7,3.2c2.2,2.2,3.3,5,3.3,8.5v15.1c0,3.5-1.1,6.3-3.3,8.5
					c-2.2,2.2-5.1,3.2-8.7,3.2h-19.1v21.1h-12.3V1014.4z M2535.6,1041.9h16c1.9,0,2.9-0.9,2.9-2.8v-10.5c0-1.9-1-2.8-2.9-2.8h-16
					V1041.9z"/>
				<path class="st1" d="M2613.9,1060.7H2594l-4.1,13.4h-12.7l19.8-59.7h14.3l19.8,59.7h-13.2L2613.9,1060.7z M2610.5,1049.4
					l-6.5-21.9l-6.6,21.9H2610.5z"/>
				<path class="st1" d="M2648.8,1074.1v-59.7h12.3v59.7H2648.8z"/>
				<path class="st1" d="M2729.4,1074.1h-13l-9.9-22.1h-9.9v22.1h-12.3v-59.6h31.3c3.6,0,6.5,1.1,8.7,3.2c2.2,2.2,3.3,5,3.3,8.5v14
					c0,2.8-0.8,5.2-2.3,7.2c-1.5,1.9-3.6,3.3-6.1,4.1L2729.4,1074.1z M2715.4,1038.1v-9.5c0-1.9-1-2.8-2.9-2.8h-15.9v15.2h15.9
					C2714.5,1040.9,2715.4,1040,2715.4,1038.1z"/>
				<path class="st1" d="M2777.8,1032.8l-0.2-4.6c-0.1-1.9-1-2.8-2.9-2.8h-12.3c-1.9,0-2.9,0.9-2.9,2.8v5.6c0,0.9,0.2,1.6,0.7,2
					c0.4,0.4,1.1,0.7,2.2,1l15.9,3.3c3.6,0.7,6.5,2.1,8.9,4.1c2.3,2,3.5,4.6,3.5,7.7v10.8c0,3.5-1.1,6.3-3.3,8.5
					c-2.2,2.1-5.1,3.2-8.7,3.2h-19.1c-3.6,0-6.5-1.1-8.7-3.2c-2.2-2.2-3.3-5-3.3-8.5v-7.6h11.9v5.3c0,1.9,1,2.8,2.9,2.8h13.3
					c1.9,0,2.9-0.9,2.9-2.8v-6.3c0-0.9-0.2-1.5-0.7-2c-0.4-0.4-1.1-0.7-2.2-1l-15.9-3.3c-3.5-0.7-6.4-2.1-8.8-4.1
					c-2.3-2-3.4-4.6-3.4-7.7v-10.1c0-3.5,1.1-6.3,3.3-8.5c2.2-2.2,5.1-3.2,8.7-3.2h18.1c3.6,0,6.5,1.1,8.7,3.2
					c2.2,2.2,3.3,5,3.3,8.5v7H2777.8z"/>
			</g>
		</g>
		<g>
			<g>
				<path class="st1" d="M3088.4,1074.1v-59.7h12.3v59.7H3088.4z"/>
				<path class="st1" d="M3159.5,1014.4h11.5v59.7h-13.2l-22.6-40.7v40.7h-11.5v-59.7h13.2l22.6,40.7V1014.4z"/>
				<path class="st1" d="M3222.8,1032.8l-0.2-4.6c-0.1-1.9-1-2.8-2.9-2.8h-12.3c-1.9,0-2.9,0.9-2.9,2.8v5.6c0,0.9,0.2,1.6,0.7,2
					c0.4,0.4,1.1,0.7,2.2,1l15.9,3.3c3.6,0.7,6.5,2.1,8.9,4.1c2.3,2,3.5,4.6,3.5,7.7v10.8c0,3.5-1.1,6.3-3.3,8.5
					c-2.2,2.1-5.1,3.2-8.7,3.2h-19.1c-3.6,0-6.5-1.1-8.7-3.2c-2.2-2.2-3.3-5-3.3-8.5v-7.6h11.9v5.3c0,1.9,1,2.8,2.9,2.8h13.3
					c1.9,0,2.9-0.9,2.9-2.8v-6.3c0-0.9-0.2-1.5-0.7-2c-0.4-0.4-1.1-0.7-2.2-1l-15.9-3.3c-3.5-0.7-6.4-2.1-8.8-4.1
					c-2.3-2-3.4-4.6-3.4-7.7v-10.1c0-3.5,1.1-6.3,3.3-8.5c2.2-2.2,5.1-3.2,8.7-3.2h18.1c3.6,0,6.5,1.1,8.7,3.2
					c2.2,2.2,3.3,5,3.3,8.5v7H3222.8z"/>
				<path class="st1" d="M3296,1025.5h-16v48.6h-12.3v-48.6h-16v-11.1h44.3V1025.5z"/>
				<path class="st1" d="M3340.2,1060.7h-19.9l-4.1,13.4h-12.7l19.8-59.7h14.3l19.8,59.7h-13.2L3340.2,1060.7z M3336.9,1049.4
					l-6.5-21.9l-6.6,21.9H3336.9z"/>
				<path class="st1" d="M3375.1,1014.4h12.3v48.4h25.7v11.3h-38V1014.4z"/>
				<path class="st1" d="M3432,1014.4h12.3v48.4h25.7v11.3h-38V1014.4z"/>
				<path class="st1" d="M3520.2,1060.7h-19.9l-4.1,13.4h-12.7l19.8-59.7h14.3l19.8,59.7h-13.2L3520.2,1060.7z M3516.9,1049.4
					l-6.5-21.9l-6.6,21.9H3516.9z"/>
				<path class="st1" d="M3589.3,1025.5h-16v48.6h-12.3v-48.6h-16v-11.1h44.3V1025.5z"/>
				<path class="st1" d="M3607.8,1074.1v-59.7h12.3v59.7H3607.8z"/>
				<path class="st1" d="M3674.4,1074.4h-20.5c-3.6,0-6.5-1.1-8.7-3.2c-2.2-2.2-3.3-5-3.3-8.5v-36.8c0-3.5,1.1-6.3,3.3-8.5
					c2.2-2.2,5.1-3.2,8.7-3.2h20.5c3.6,0,6.5,1.1,8.7,3.2c2.2,2.2,3.3,5,3.3,8.5v36.8c0,3.5-1.1,6.3-3.3,8.5
					C3680.9,1073.3,3678,1074.4,3674.4,1074.4z M3654,1028.2v32.2c0,1.9,1,2.8,2.9,2.8h14.4c1.9,0,2.9-0.9,2.9-2.8v-32.2
					c0-1.9-1-2.8-2.9-2.8h-14.4C3655,1025.3,3654,1026.3,3654,1028.2z"/>
				<path class="st1" d="M3743.9,1014.4h11.5v59.7h-13.2l-22.6-40.7v40.7h-11.5v-59.7h13.2l22.6,40.7V1014.4z"/>
				<path class="st1" d="M3807.2,1032.8l-0.2-4.6c-0.1-1.9-1-2.8-2.9-2.8h-12.3c-1.9,0-2.9,0.9-2.9,2.8v5.6c0,0.9,0.2,1.6,0.7,2
					c0.4,0.4,1.1,0.7,2.2,1l15.9,3.3c3.6,0.7,6.5,2.1,8.9,4.1c2.3,2,3.5,4.6,3.5,7.7v10.8c0,3.5-1.1,6.3-3.3,8.5
					c-2.2,2.1-5.1,3.2-8.7,3.2h-19.1c-3.6,0-6.5-1.1-8.7-3.2c-2.2-2.2-3.3-5-3.3-8.5v-7.6h11.9v5.3c0,1.9,1,2.8,2.9,2.8h13.3
					c1.9,0,2.9-0.9,2.9-2.8v-6.3c0-0.9-0.2-1.5-0.7-2c-0.4-0.4-1.1-0.7-2.2-1l-15.9-3.3c-3.5-0.7-6.4-2.1-8.8-4.1
					c-2.3-2-3.4-4.6-3.4-7.7v-10.1c0-3.5,1.1-6.3,3.3-8.5c2.2-2.2,5.1-3.2,8.7-3.2h18.1c3.6,0,6.5,1.1,8.7,3.2
					c2.2,2.2,3.3,5,3.3,8.5v7H3807.2z"/>
			</g>
		</g>
		<circle class="st0" cx="2260.2" cy="1044.3" r="17"/>
		<circle class="st0" cx="2937.6" cy="1044.3" r="17"/>
	</g>
</g>
</svg>
